<svg id="leafC" class="leaf" viewBox="0 0 236 229" fill="none" xmlns="http://www.w3.org/2000/svg">
<path d="M178.201 171.689C166.369 172.272 137.014 183.109 97.1462 156.246C100.998 150.462 106.025 145.007 111.864 139.779C103.537 143.682 95.7893 147.688 89.3179 151.88C83.9846 148.633 78.9759 144.88 74.3608 140.674C33.5381 103.307 23.3388 51.7398 34.2231 36.1181C42.5909 44.2684 54.29 45.403 67.8768 45.9863C70.0571 51.2536 71.7265 56.7181 72.862 62.3045C73.4535 56.7337 73.8921 51.3345 74.0763 46.2273C94.0097 47.0028 114.439 50.6134 139.786 69.1968C193.593 108.631 180.581 151.475 181.788 166.875C181.788 166.875 189.329 176.787 196.12 179.161C202.911 181.535 208.981 177.702 209.119 180.816C209.257 183.929 207.481 189.134 204.58 189.039C201.679 188.944 178.201 171.689 178.201 171.689Z" fill="#D9EFED"/>
<path style="mix-blend-mode:multiply" opacity="0.2" d="M173.303 172.079C175.096 171.817 176.67 171.618 178.02 171.552C178.02 171.552 201.497 188.807 204.398 188.902C207.3 188.996 209.075 183.792 208.937 180.678C208.8 177.564 202.729 181.398 195.938 179.024C189.148 176.649 181.596 166.749 181.596 166.749C180.405 151.36 193.399 108.512 139.596 69.0687C114.248 50.4853 93.8195 46.8747 73.8814 46.095C73.6973 51.2021 73.2456 56.6108 72.6648 62.17C71.5279 56.584 69.8586 51.1196 67.6796 45.8519C54.2895 45.2822 42.7413 44.1832 34.3864 36.3265C32.4666 63.005 57.2623 87.1442 86.4137 91.2053C90.0837 91.6922 93.7191 92.4123 97.2977 93.361C145.074 106.399 156.083 141.757 173.303 172.079Z" fill="url(#paint0_linear)"/>
<g style="mix-blend-mode:lighten" opacity="0.25">
<path d="M82.4701 140.81C85.8656 137.8 90.0883 135.405 95.1383 133.625C95.4044 133.529 95.6356 133.356 95.8021 133.127C95.9686 132.898 96.0627 132.625 96.0723 132.343C96.0818 132.06 96.0064 131.781 95.8558 131.542C95.7052 131.302 95.4862 131.114 95.2273 131C76.0884 122.594 60.993 110.275 49.4923 94.481C49.2876 94.1977 48.9853 94.0003 48.6437 93.9268C48.3021 93.8533 47.9454 93.9089 47.6423 94.0829C47.3393 94.2569 47.1115 94.537 47.0028 94.8691C46.8941 95.2012 46.9123 95.5618 47.0537 95.8813C54.5032 112.842 65.4673 127.944 80.6039 140.839C80.8651 141.062 81.1989 141.182 81.5425 141.177C81.8861 141.172 82.216 141.041 82.4701 140.81Z" fill="#F4DCDC"/>
</g>
<g style="mix-blend-mode:lighten" opacity="0.25">
<path d="M103.671 156.429C104.713 154.494 108.11 151.235 110.147 149.979C110.676 149.653 111.004 149.15 111.375 149.644C117.475 157.745 124.972 163.503 133.708 167.175C133.864 167.241 133.99 167.362 134.062 167.515C134.134 167.668 134.147 167.842 134.099 168.004C134.051 168.166 133.944 168.304 133.8 168.392C133.656 168.481 133.484 168.513 133.318 168.483C124.481 166.852 111.646 163.017 103.852 157.304C103.723 157.203 103.634 157.06 103.6 156.9C103.567 156.74 103.592 156.573 103.671 156.429V156.429Z" fill="#F4DCDC"/>
</g>
<path d="M51.7818 75.3677C53.8281 77.7956 56.3357 79.7709 58.9474 81.5297C61.6004 83.2645 64.3705 84.8131 67.2378 86.1645C73.0004 88.8228 79.0797 90.7294 85.2483 92.1885L89.9089 93.1594C90.6812 93.337 91.4679 93.4382 92.249 93.5642L94.6026 93.9215L96.9478 94.2882C97.7121 94.4372 98.4754 94.5639 99.2382 94.7286C100.766 95.0644 102.285 95.4386 103.778 95.8964C106.776 96.7916 109.704 97.9031 112.541 99.2222C115.377 100.557 118.124 102.074 120.765 103.762C126.052 107.146 130.984 111.053 135.488 115.425C140.012 119.795 144.223 124.477 148.091 129.436C151.977 134.396 155.578 139.571 158.877 144.939C160.552 147.61 162.151 150.328 163.675 153.091C165.198 155.854 166.656 158.652 168.049 161.487C167.405 160.044 166.762 158.602 166.082 157.176C165.401 155.751 164.693 154.338 163.968 152.933C162.522 150.126 161.001 147.356 159.407 144.621C156.195 139.165 152.673 133.898 148.858 128.845C147.906 127.581 146.924 126.337 145.932 125.103C144.939 123.87 143.902 122.657 142.854 121.471C140.763 119.092 138.59 116.774 136.31 114.564C131.769 110.11 126.784 106.134 121.433 102.696C118.744 100.989 115.946 99.4597 113.058 98.1163C110.166 96.7756 107.178 95.6538 104.118 94.7604C102.589 94.3087 101.028 93.9386 99.4764 93.6149C98.6937 93.4533 97.8992 93.328 97.1256 93.1705L94.7883 92.828L92.4488 92.4878C91.6704 92.3729 90.886 92.2738 90.119 92.1138L85.4871 91.2375C79.3263 89.9576 73.3078 88.069 67.5203 85.5994C64.6359 84.3417 61.8417 82.8865 59.1576 81.2441L57.1878 79.9405C56.5544 79.4759 55.9075 79.0075 55.2916 78.5378C54.0319 77.585 52.8575 76.5243 51.7818 75.3677V75.3677Z" fill="white"/>
<g style="mix-blend-mode:lighten" opacity="0.15">
<path d="M160.836 96.9243C155.856 85.1099 112.837 48.7673 77.6302 49.7875C76.5405 59.4609 73.0145 65.197 73.0145 65.197L66.7295 51.3342C66.7295 51.3342 45.4146 55.2998 40.5248 46.9825C35.6351 38.6652 50.5218 77.0481 81.8874 86.1238C90.0565 88.522 96.7419 87.5559 102.947 86.1163C115.216 83.2611 124.926 81.1274 137.039 87.9467C144.353 92.0809 154.427 97.7935 160.836 96.9243Z" fill="white"/>
</g>
<defs>
<linearGradient id="paint0_linear" x1="98.1609" y1="59.0694" x2="120.073" y2="110.481" gradientUnits="userSpaceOnUse">
<stop stop-color="#B6BFBF"/>
<stop offset="0.32" stop-color="#DBDDE0"/>
<stop offset="1" stop-color="#F2DCFF"/>
</linearGradient>
</defs>
</svg>

