<svg id="leafB" class="leaf" viewBox="0 0 214 218" fill="none" xmlns="http://www.w3.org/2000/svg">
<path d="M159.228 131.612C164.176 133.006 169.045 134.665 173.815 136.582C194.045 116.526 203.337 92.4931 206.466 56.232C200.427 58.7893 193.146 59.6218 184.986 59.6136C181.098 62.5072 177.949 66.2805 175.327 70.6702C176.348 66.7175 177.44 62.9602 178.624 59.4543C149.276 58.1546 110.69 49.6036 77.1564 68.9993C33.2468 94.4054 39.8893 147.557 40.5172 151.931C30.6251 155.46 19.4032 157.965 10.5983 155.804C-9.71781 150.811 8.69809 164.26 12.7346 163.072C15.794 162.171 26.0728 164.431 44.2343 154.597C56.8519 162.311 99.7819 184.933 138.349 162.618C150.614 155.523 160.866 148.398 169.392 140.755C166.689 137.159 163.23 134.168 159.228 131.612Z" fill="url(#paint0_linear)"/>
<path style="mix-blend-mode:darken" opacity="0.75" d="M206.706 55.5271C178.486 67.4804 122.743 41.5501 76.929 68.0578C31.1146 94.5655 41.0391 151.496 41.0391 151.496C41.0391 151.496 71.2328 101.094 151.731 84.3937C196.135 75.1814 206.706 55.5271 206.706 55.5271Z" fill="url(#paint1_linear)"/>
<path d="M58.8549 130.129C61.0939 127.844 63.4832 125.71 65.9171 123.636C68.3509 121.562 70.8579 119.564 73.3979 117.631C75.9379 115.698 78.5717 113.846 81.2241 112.063L83.2253 110.738L84.2282 110.078L85.2557 109.437L87.2863 108.153L89.3379 106.906L90.3628 106.28L91.4019 105.676L93.48 104.468C94.1746 104.071 94.8817 103.693 95.5826 103.305C96.2834 102.917 96.9808 102.522 97.6919 102.157C99.1135 101.422 100.528 100.655 101.962 99.9529L104.115 98.8834C104.839 98.5205 105.562 98.1994 106.284 97.8555C112.08 95.1256 118.011 92.6941 124.055 90.5705C130.111 88.4723 136.276 86.7038 142.524 85.2727C145.636 84.5501 148.758 83.8697 151.869 83.108C154.981 82.3464 158.078 81.6049 161.175 80.8217C167.356 79.2242 173.51 77.4904 179.541 75.4001C182.564 74.3778 185.533 73.2002 188.435 71.8721C189.882 71.2018 191.285 70.4403 192.635 69.5921C193.302 69.1705 193.937 68.6993 194.534 68.1825C194.833 67.9197 195.108 67.6296 195.353 67.316C195.617 67.0142 195.789 66.6431 195.849 66.2467C195.8 66.6524 195.636 67.0355 195.375 67.3503C195.136 67.6721 194.868 67.9722 194.576 68.2472C193.991 68.7929 193.366 69.2947 192.706 69.7485C191.369 70.6321 189.975 71.4275 188.534 72.1296C185.651 73.5251 182.696 74.7707 179.684 75.8612C173.667 78.031 167.515 79.8522 161.347 81.5388C155.18 83.2253 148.929 84.6542 142.706 86.1033C136.502 87.547 130.38 89.3236 124.366 91.4255C112.307 95.623 100.694 101.009 89.6981 107.503L87.6357 108.72L85.597 109.976L84.5777 110.603L83.5708 111.249L81.5587 112.544C78.8891 114.297 76.2637 116.113 73.6823 117.993C71.1009 119.872 68.5659 121.815 66.0771 123.821C64.8415 124.831 63.6156 125.858 62.4115 126.904C61.2075 127.949 60.0026 129.013 58.8549 130.129Z" fill="white"/>
<g style="mix-blend-mode:multiply" opacity="0.15">
<path d="M72.0143 118.137C72.0143 118.137 78.6853 94.3313 93.966 84.8144C114.34 72.1252 154.818 82.2444 154.818 82.2444C154.818 82.2444 118.649 90.8596 104.02 98.6982C89.8456 106.295 72.0143 118.137 72.0143 118.137Z" fill="#7C7C7C"/>
</g>
<g style="mix-blend-mode:lighten" opacity="0.25">
<path d="M169.417 125.175L169.975 114.502C169.99 114.222 170.115 113.959 170.323 113.771C183.196 102.002 192.072 89.8437 197.988 77.3948C198.102 77.1505 198.304 76.9583 198.554 76.8567C198.803 76.7552 199.082 76.7518 199.334 76.8472C199.586 76.9426 199.793 77.1298 199.912 77.3713C200.032 77.6127 200.056 77.8905 199.98 78.149C195.027 95.5011 185.045 111.319 171.266 125.967C171.115 126.127 170.919 126.236 170.704 126.281C170.49 126.326 170.266 126.303 170.065 126.217C169.863 126.131 169.693 125.984 169.577 125.798C169.461 125.612 169.405 125.394 169.417 125.175V125.175Z" fill="#F4DCDC"/>
</g>
<g style="mix-blend-mode:lighten" opacity="0.25">
<path d="M93.7805 68.8081L99.9716 70.9711C100.135 71.0288 100.314 71.0197 100.47 70.946C110.14 66.3641 119.108 64.1459 127.554 63.6759C127.716 63.663 127.867 63.5907 127.979 63.4729C128.09 63.3552 128.154 63.2002 128.159 63.038C128.163 62.8758 128.107 62.7177 128.002 62.5943C127.896 62.4709 127.749 62.3908 127.588 62.3695C116.582 61.1531 105.281 63.1505 93.7588 67.5796C93.635 67.6292 93.5293 67.7152 93.4556 67.8262C93.3818 67.9373 93.3436 68.0682 93.3459 68.2014C93.3483 68.3347 93.3911 68.4641 93.4687 68.5725C93.5463 68.6808 93.655 68.763 93.7805 68.8081V68.8081Z" fill="#F4DCDC"/>
</g>
<path d="M124.45 128.39C121.149 126.764 111.701 126.169 108.664 126.64C88.361 129.79 69.0378 140.113 69.0378 140.113C69.0378 140.113 77.557 128.269 94.6229 117.611C106.034 110.533 118.899 106.129 132.252 104.731C169.081 100.789 186.572 82.7951 186.572 82.7951C186.572 82.7951 186.076 83.6582 185.119 85.1535C180.121 92.9577 174.045 100.016 167.072 106.118C162.152 110.424 158.317 115.83 155.879 121.897C151.011 134.067 135.639 155.585 87.2268 164.685C119.334 145.093 123.716 135.551 124.588 129.345C125.46 123.139 124.45 128.39 124.45 128.39Z" fill="#DDF4F1"/>
<path d="M95.628 68.2651L101.819 70.4281C101.982 70.4858 102.162 70.4768 102.318 70.403C111.988 65.8211 120.955 63.6029 129.402 63.133C129.563 63.1201 129.715 63.0477 129.826 62.93C129.938 62.8122 130.002 62.6573 130.006 62.495C130.01 62.3328 129.955 62.1748 129.849 62.0513C129.744 61.9279 129.597 61.8478 129.436 61.8265C118.43 60.6102 107.128 62.6076 95.6063 67.0367C95.4826 67.0862 95.3768 67.1722 95.3031 67.2833C95.2294 67.3943 95.1911 67.5252 95.1935 67.6585C95.1958 67.7918 95.2387 67.9212 95.3163 68.0295C95.3939 68.1379 95.5026 68.22 95.628 68.2651V68.2651Z" fill="#D8F5ED"/>
<defs>
<linearGradient id="paint0_linear" x1="30.8369" y1="79.399" x2="182.628" y2="138.35" gradientUnits="userSpaceOnUse">
<stop stop-color="#E5F0EB"/>
<stop offset="0.14" stop-color="#DAFFF2"/>
<stop offset="0.458333" stop-color="#D6ECE8"/>
<stop offset="0.81" stop-color="#E1F4F2"/>
<stop offset="1" stop-color="#E1F1F0"/>
</linearGradient>
<linearGradient id="paint1_linear" x1="123.419" y1="96.9648" x2="123.143" y2="41.5142" gradientUnits="userSpaceOnUse">
<stop offset="0.02" stop-color="#D8ECEA"/>
<stop offset="0.17" stop-color="#D7F1EF"/>
<stop offset="0.4" stop-color="white"/>
<stop offset="0.68" stop-color="#E9E9E9"/>
<stop offset="0.82" stop-color="#D8FAEB"/>
</linearGradient>
</defs>
</svg>
